<svg width="28" height="28" viewBox="0 0 28 28" fill="none" xmlns="http://www.w3.org/2000/svg">
<path d="M9.625 20.125C9.39294 20.125 9.17038 20.2172 9.00628 20.3813C8.84219 20.5454 8.75 20.7679 8.75 21C8.75 21.2321 8.84219 21.4546 9.00628 21.6187C9.17038 21.7828 9.39294 21.875 9.625 21.875H18.375C18.6071 21.875 18.8296 21.7828 18.9937 21.6187C19.1578 21.4546 19.25 21.2321 19.25 21C19.25 20.7679 19.1578 20.5454 18.9937 20.3813C18.8296 20.2172 18.6071 20.125 18.375 20.125H9.625ZM8.75 17.5C8.75 17.2679 8.84219 17.0454 9.00628 16.8813C9.17038 16.7172 9.39294 16.625 9.625 16.625H18.375C18.6071 16.625 18.8296 16.7172 18.9937 16.8813C19.1578 17.0454 19.25 17.2679 19.25 17.5C19.25 17.7321 19.1578 17.9546 18.9937 18.1187C18.8296 18.2828 18.6071 18.375 18.375 18.375H9.625C9.39294 18.375 9.17038 18.2828 9.00628 18.1187C8.84219 17.9546 8.75 17.7321 8.75 17.5ZM9.625 13.125C9.39294 13.125 9.17038 13.2172 9.00628 13.3813C8.84219 13.5454 8.75 13.7679 8.75 14C8.75 14.2321 8.84219 14.4546 9.00628 14.6187C9.17038 14.7828 9.39294 14.875 9.625 14.875H18.375C18.6071 14.875 18.8296 14.7828 18.9937 14.6187C19.1578 14.4546 19.25 14.2321 19.25 14C19.25 13.7679 19.1578 13.5454 18.9937 13.3813C18.8296 13.2172 18.6071 13.125 18.375 13.125H9.625ZM4.375 4.375C4.375 3.67881 4.65156 3.01113 5.14384 2.51884C5.63613 2.02656 6.30381 1.75 7 1.75H15.9005C16.5963 1.75038 17.2635 2.02702 17.7555 2.51912L22.8568 7.61862C23.3487 8.11094 23.6251 8.77849 23.625 9.4745V23.625C23.625 24.3212 23.3484 24.9889 22.8562 25.4812C22.3639 25.9734 21.6962 26.25 21 26.25H7C6.30381 26.25 5.63613 25.9734 5.14384 25.4812C4.65156 24.9889 4.375 24.3212 4.375 23.625V4.375ZM7 3.5C6.76794 3.5 6.54538 3.59219 6.38128 3.75628C6.21719 3.92038 6.125 4.14294 6.125 4.375V23.625C6.125 23.8571 6.21719 24.0796 6.38128 24.2437C6.54538 24.4078 6.76794 24.5 7 24.5H21C21.2321 24.5 21.4546 24.4078 21.6187 24.2437C21.7828 24.0796 21.875 23.8571 21.875 23.625V10.5H17.5C16.8038 10.5 16.1361 10.2234 15.6438 9.73116C15.1516 9.23887 14.875 8.57119 14.875 7.875V3.5H7ZM17.5 8.75H21.5128L16.625 3.86225V7.875C16.625 8.10706 16.7172 8.32962 16.8813 8.49372C17.0454 8.65781 17.2679 8.75 17.5 8.75Z" fill="white" fill-opacity="0.6"/>
</svg>
