<svg width="28" height="28" viewBox="0 0 28 28" fill="none" xmlns="http://www.w3.org/2000/svg">
<path d="M10.5035 6.99998C10.5035 6.07265 10.8719 5.1833 11.5276 4.52758C12.1833 3.87186 13.0727 3.50348 14 3.50348C14.9273 3.50348 15.8167 3.87186 16.4724 4.52758C17.1281 5.1833 17.4965 6.07265 17.4965 6.99998C17.4965 7.92731 17.1281 8.81666 16.4724 9.47238C15.8167 10.1281 14.9273 10.4965 14 10.4965C13.0727 10.4965 12.1833 10.1281 11.5276 9.47238C10.8719 8.81666 10.5035 7.92731 10.5035 6.99998ZM14 5.25348C13.7706 5.25348 13.5435 5.29865 13.3316 5.38642C13.1197 5.47419 12.9272 5.60284 12.765 5.76502C12.6029 5.92719 12.4742 6.11973 12.3864 6.33162C12.2987 6.54352 12.2535 6.77063 12.2535 6.99998C12.2535 7.22933 12.2987 7.45644 12.3864 7.66834C12.4742 7.88023 12.6029 8.07276 12.765 8.23494C12.9272 8.39712 13.1197 8.52576 13.3316 8.61353C13.5435 8.7013 13.7706 8.74648 14 8.74648C14.4632 8.74648 14.9074 8.56247 15.235 8.23494C15.5625 7.90741 15.7465 7.46318 15.7465 6.99998C15.7465 6.53678 15.5625 6.09255 15.235 5.76502C14.9074 5.43748 14.4632 5.25348 14 5.25348ZM19.25 7.87498C19.25 7.53026 19.3179 7.18891 19.4498 6.87043C19.5817 6.55196 19.7751 6.26258 20.0188 6.01882C20.2626 5.77507 20.552 5.58171 20.8705 5.44979C21.1889 5.31788 21.5303 5.24998 21.875 5.24998C22.2197 5.24998 22.5611 5.31788 22.8795 5.44979C23.198 5.58171 23.4874 5.77507 23.7312 6.01882C23.9749 6.26258 24.1683 6.55196 24.3002 6.87043C24.4321 7.18891 24.5 7.53026 24.5 7.87498C24.5 8.57117 24.2234 9.23885 23.7312 9.73113C23.2389 10.2234 22.5712 10.5 21.875 10.5C21.1788 10.5 20.5111 10.2234 20.0188 9.73113C19.5266 9.23885 19.25 8.57117 19.25 7.87498ZM21.875 6.99998C21.6429 6.99998 21.4204 7.09217 21.2563 7.25626C21.0922 7.42035 21 7.64291 21 7.87498C21 8.10704 21.0922 8.3296 21.2563 8.4937C21.4204 8.65779 21.6429 8.74998 21.875 8.74998C22.1071 8.74998 22.3296 8.65779 22.4937 8.4937C22.6578 8.3296 22.75 8.10704 22.75 7.87498C22.75 7.64291 22.6578 7.42035 22.4937 7.25626C22.3296 7.09217 22.1071 6.99998 21.875 6.99998ZM6.125 5.24998C5.42881 5.24998 4.76113 5.52654 4.26885 6.01882C3.77656 6.51111 3.5 7.17879 3.5 7.87498C3.5 8.57117 3.77656 9.23885 4.26885 9.73113C4.76113 10.2234 5.42881 10.5 6.125 10.5C6.82119 10.5 7.48887 10.2234 7.98116 9.73113C8.47344 9.23885 8.75 8.57117 8.75 7.87498C8.75 7.17879 8.47344 6.51111 7.98116 6.01882C7.48887 5.52654 6.82119 5.24998 6.125 5.24998ZM5.25 7.87498C5.25 7.64291 5.34219 7.42035 5.50628 7.25626C5.67038 7.09217 5.89294 6.99998 6.125 6.99998C6.35706 6.99998 6.57962 7.09217 6.74372 7.25626C6.90781 7.42035 7 7.64291 7 7.87498C7 8.10704 6.90781 8.3296 6.74372 8.4937C6.57962 8.65779 6.35706 8.74998 6.125 8.74998C5.89294 8.74998 5.67038 8.65779 5.50628 8.4937C5.34219 8.3296 5.25 8.10704 5.25 7.87498ZM7.469 12.25C7.16178 12.782 7.00003 13.3856 7 14H3.5V18.375C3.49986 18.8103 3.60797 19.2388 3.81459 19.6219C4.02122 20.005 4.31988 20.3307 4.68368 20.5697C5.04748 20.8087 5.46501 20.9535 5.89868 20.9911C6.33235 21.0286 6.76855 20.9577 7.168 20.7847C7.2975 21.364 7.5005 21.917 7.763 22.4332C7.09881 22.7014 6.37894 22.8024 5.6666 22.7274C4.95426 22.6523 4.27124 22.4035 3.67752 22.0028C3.08381 21.6021 2.59756 21.0617 2.26148 20.4292C1.9254 19.7966 1.74976 19.0913 1.75 18.375V14C1.75 13.5359 1.93437 13.0907 2.26256 12.7625C2.59075 12.4344 3.03587 12.25 3.5 12.25H7.469ZM20.237 22.4332C20.9012 22.7014 21.6211 22.8024 22.3334 22.7274C23.0457 22.6523 23.7288 22.4035 24.3225 22.0028C24.9162 21.6021 25.4024 21.0617 25.7385 20.4292C26.0746 19.7966 26.2502 19.0913 26.25 18.375V14C26.25 13.5359 26.0656 13.0907 25.7374 12.7625C25.4092 12.4344 24.9641 12.25 24.5 12.25H20.531C20.8285 12.7645 21 13.3612 21 14H24.5V18.375C24.5001 18.8103 24.392 19.2388 24.1854 19.6219C23.9788 20.005 23.6801 20.3307 23.3163 20.5697C22.9525 20.8087 22.535 20.9535 22.1013 20.9911C21.6677 21.0286 21.2315 20.9577 20.832 20.7847C20.699 21.3657 20.5007 21.9152 20.237 22.4332ZM10.5 12.2482C10.0359 12.2482 9.59075 12.4326 9.26256 12.7608C8.93437 13.089 8.75 13.5341 8.75 13.9982V19.25C8.75 20.6424 9.30312 21.9777 10.2877 22.9623C11.2723 23.9469 12.6076 24.5 14 24.5C15.3924 24.5 16.7277 23.9469 17.7123 22.9623C18.6969 21.9777 19.25 20.6424 19.25 19.25V14C19.25 13.5359 19.0656 13.0907 18.7374 12.7625C18.4092 12.4344 17.9641 12.25 17.5 12.25L10.5 12.2482ZM10.5 13.9982H17.5V19.25C17.5 20.1782 17.1313 21.0685 16.4749 21.7249C15.8185 22.3812 14.9283 22.75 14 22.75C13.0717 22.75 12.1815 22.3812 11.5251 21.7249C10.8687 21.0685 10.5 20.1782 10.5 19.25V13.9982Z" fill="white" fill-opacity="0.6"/>
</svg>
