<svg width="26" height="26" viewBox="0 0 26 26" fill="none" xmlns="http://www.w3.org/2000/svg">
<path d="M21.6668 18.4167V7.58333C21.6668 5.23467 17.6986 3.25 13.0002 3.25C8.30175 3.25 4.3335 5.23467 4.3335 7.58333V18.4167C4.3335 20.7653 8.30175 22.75 13.0002 22.75C17.6986 22.75 21.6668 20.7653 21.6668 18.4167ZM13.0002 5.41667C16.9987 5.41667 19.4254 7.04925 19.5002 7.57683C19.4254 8.11742 16.9987 9.75 13.0002 9.75C9.00158 9.75 6.57491 8.11742 6.50016 7.58983C6.57491 7.04925 9.00158 5.41667 13.0002 5.41667ZM6.50016 10.4076C8.10241 11.3252 10.4402 11.9167 13.0002 11.9167C15.5601 11.9167 17.8979 11.3252 19.5002 10.4076V12.9935C19.4254 13.5341 16.9987 15.1667 13.0002 15.1667C9.00158 15.1667 6.57491 13.5341 6.50016 13V10.4076ZM6.50016 18.4167V15.8243C8.10241 16.7418 10.4402 17.3333 13.0002 17.3333C15.5601 17.3333 17.8979 16.7418 19.5002 15.8243V18.4102C19.4254 18.9508 16.9987 20.5833 13.0002 20.5833C9.00158 20.5833 6.57491 18.9508 6.50016 18.4167Z" fill="white" fill-opacity="0.6"/>
</svg>
