<svg width="26" height="26" viewBox="0 0 26 26" fill="none" xmlns="http://www.w3.org/2000/svg">
<path d="M21.6666 18.4167V7.58333C21.6666 5.23467 17.6983 3.25 12.9999 3.25C8.3015 3.25 4.33325 5.23467 4.33325 7.58333V18.4167C4.33325 20.7653 8.3015 22.75 12.9999 22.75C17.6983 22.75 21.6666 20.7653 21.6666 18.4167ZM12.9999 5.41667C16.9985 5.41667 19.4252 7.04925 19.4999 7.57683C19.4252 8.11742 16.9985 9.75 12.9999 9.75C9.00134 9.75 6.57467 8.11742 6.49992 7.58983C6.57467 7.04925 9.00134 5.41667 12.9999 5.41667ZM6.49992 10.4076C8.10217 11.3252 10.44 11.9167 12.9999 11.9167C15.5598 11.9167 17.8977 11.3252 19.4999 10.4076V12.9935C19.4252 13.5341 16.9985 15.1667 12.9999 15.1667C9.00134 15.1667 6.57467 13.5341 6.49992 13V10.4076ZM6.49992 18.4167V15.8243C8.10217 16.7418 10.44 17.3333 12.9999 17.3333C15.5598 17.3333 17.8977 16.7418 19.4999 15.8243V18.4102C19.4252 18.9508 16.9985 20.5833 12.9999 20.5833C9.00134 20.5833 6.57467 18.9508 6.49992 18.4167Z" fill="white"/>
</svg>
