<svg width="26" height="26" viewBox="0 0 26 26" fill="none" xmlns="http://www.w3.org/2000/svg">
<path d="M12.9998 6.0385L12.4062 6.59317C12.4822 6.67452 12.5741 6.73938 12.6762 6.78372C12.7784 6.82807 12.8885 6.85095 12.9998 6.85095C13.1112 6.85095 13.2213 6.82807 13.3234 6.78372C13.4256 6.73938 13.5175 6.67452 13.5935 6.59317L12.9998 6.0385ZM10.22 20.3623C8.64917 19.0883 6.81617 17.4168 5.38184 15.587C3.93125 13.7378 2.979 11.8387 2.979 10.0945H1.354C1.354 12.3879 2.57817 14.6467 4.10242 16.5902C5.64292 18.5543 7.57992 20.3125 9.19625 21.6244L10.22 20.3623ZM2.979 10.0945C2.979 6.94742 4.35267 5.00284 6.05134 4.33659C7.74675 3.67251 10.1182 4.14701 12.4062 6.59317L13.5935 5.48384C11.0065 2.71701 7.96125 1.84384 5.45875 2.82317C2.9595 3.80251 1.354 6.49134 1.354 10.0945H2.979ZM16.8023 21.6233C18.4198 20.3114 20.3568 18.5532 21.8973 16.5891C23.4215 14.6456 24.6457 12.3868 24.6457 10.0923H23.0207C23.0207 11.8387 22.0673 13.7367 20.6178 15.5859C19.1835 17.4157 17.3505 19.0873 15.7797 20.3613L16.8023 21.6233ZM24.6457 10.0923C24.6457 6.49025 23.0402 3.80142 20.5398 2.82317C18.0373 1.84276 14.9932 2.71484 12.4062 5.48275L13.5935 6.59317C15.8815 4.14701 18.2529 3.67142 19.9483 4.33551C21.647 5.00067 23.0207 6.94634 23.0207 10.0923H24.6457ZM9.19625 21.6244C10.5721 22.7424 11.5287 23.5625 12.9998 23.5625V21.9375C12.2166 21.9375 11.7291 21.5865 10.22 20.3623L9.19625 21.6244ZM15.7797 20.3613C14.2706 21.5854 13.7831 21.9375 12.9998 21.9375V23.5625C14.471 23.5625 15.4276 22.7424 16.8034 21.6244L15.7797 20.3613Z" fill="white" fill-opacity="0.6"/>
<path d="M20.0413 9.74998H17.8747M17.8747 9.74998H15.708M17.8747 9.74998V7.58331M17.8747 9.74998V11.9166" stroke="white" stroke-opacity="0.6" stroke-width="1.5" stroke-linecap="round"/>
</svg>
