<svg width="26" height="26" viewBox="0 0 26 26" fill="none" xmlns="http://www.w3.org/2000/svg">
<path d="M13.0001 6.0385L12.4064 6.59317C12.4824 6.67452 12.5743 6.73938 12.6765 6.78372C12.7786 6.82807 12.8887 6.85095 13.0001 6.85095C13.1114 6.85095 13.2216 6.82807 13.3237 6.78372C13.4258 6.73938 13.5177 6.67452 13.5937 6.59317L13.0001 6.0385ZM10.2202 20.3623C8.64942 19.0883 6.81641 17.4168 5.38208 15.587C3.9315 13.7378 2.97925 11.8387 2.97925 10.0945H1.35425C1.35425 12.3879 2.57841 14.6467 4.10266 16.5902C5.64316 18.5543 7.58017 20.3125 9.1965 21.6244L10.2202 20.3623ZM2.97925 10.0945C2.97925 6.94742 4.35291 5.00284 6.05158 4.33659C7.747 3.67251 10.1184 4.14701 12.4064 6.59317L13.5937 5.48384C11.0067 2.71701 7.9615 1.84384 5.459 2.82317C2.95975 3.80251 1.35425 6.49134 1.35425 10.0945H2.97925ZM16.8026 21.6233C18.42 20.3114 20.357 18.5532 21.8975 16.5891C23.4217 14.6456 24.6459 12.3868 24.6459 10.0923H23.0209C23.0209 11.8387 22.0676 13.7367 20.6181 15.5859C19.1837 17.4157 17.3507 19.0873 15.7799 20.3613L16.8026 21.6233ZM24.6459 10.0923C24.6459 6.49025 23.0404 3.80142 20.5401 2.82317C18.0376 1.84276 14.9934 2.71484 12.4064 5.48275L13.5937 6.59317C15.8817 4.14701 18.2532 3.67142 19.9486 4.33551C21.6472 5.00067 23.0209 6.94634 23.0209 10.0923H24.6459ZM9.1965 21.6244C10.5723 22.7424 11.5289 23.5625 13.0001 23.5625V21.9375C12.2168 21.9375 11.7293 21.5865 10.2202 20.3623L9.1965 21.6244ZM15.7799 20.3613C14.2708 21.5854 13.7833 21.9375 13.0001 21.9375V23.5625C14.4712 23.5625 15.4278 22.7424 16.8037 21.6244L15.7799 20.3613Z" fill="white"/>
<path d="M20.0418 9.74998H17.8752M17.8752 9.74998H15.7085M17.8752 9.74998V7.58331M17.8752 9.74998V11.9166" stroke="white" stroke-width="1.5" stroke-linecap="round"/>
</svg>
